<?xml version="1.0" encoding="UTF-8"?><svg id="uuid-9b1b48d6-eebc-40a1-a1df-451b7b8738c3" xmlns="http://www.w3.org/2000/svg" viewBox="0 0 160.23 77.08"><path d="m18.36,65.17c-.99-.26-2.34-1.09-3.32-2.65-1.55-2.48-2.39-4.75-2.91-8.39-.92-6.46.94-14.61,4.91-20.97,15.29-24.48,53.11-23.24,77.58-18.26,15.35,3.13,31.73,8.35,43.31,19.4,6.03,5.75,12.82,15.75,9.48,23.9-.6,1.46-2.49,3.19-3.97,3.38-3.81.49-7.79-1.18-11.41-2.71-12.67-5.34-24.72-11.38-38.49-13.45-17.57-2.64-34.9-.03-50.88,7.69-5.36,2.59-10.38,5.76-15.55,8.69-1.63.92-4.1,2.25-5.29,2.68-.87.31-1.79.63-2.71.75,1.31-.17-2.21-.34-.74-.05-7.54-1.49-10.77,10.07-3.19,11.57,10.38,2.06,19.69-5.83,28.22-10.52,14.89-8.2,31.53-11.79,48.47-9,8.16,1.34,16.05,3.99,23.61,7.29,5.95,2.6,11.79,5.7,18,7.66,10.16,3.2,21.21.52,25.26-10.18,4.28-11.28-1.34-23.61-8.61-32.25-11.42-13.58-29.23-20.79-46.02-24.99C73.55-2.89,30.08-4.33,8.95,23.85,2.03,33.07-1.24,44.87.43,56.32c1.23,8.49,5.71,18.07,14.75,20.42,7.48,1.94,10.67-9.63,3.19-11.57Z" style="fill:#a17207;"/><text transform="translate(17.46 43.26) rotate(.05) scale(.97 1) skewX(-.08)" style="fill:#a17207; font-family:NexaBlack, &apos;Nexa Black&apos;; font-size:18.53px;"><tspan x="0" y="0" style="letter-spacing:-.08em;">A</tspan><tspan x="13.27" y="0" style="letter-spacing:0em;">YU CENIM</tspan><tspan x="109.1" y="0" style="letter-spacing:-.03em;">A</tspan></text></svg>